<svg xmlns="http://www.w3.org/2000/svg" viewBox="0 0 980 300" role="img" aria-labelledby="title desc" preserveAspectRatio="xMidYMid meet">
  <title id="title">Forsynka.ru logo</title>
  <desc id="desc">Injector symbol with arrow and FORSYNKA.RU text</desc>
  <defs>
    <linearGradient id="metal" x1="0" x2="1">
      <stop offset="0" stop-color="#f4f7fb"/>
      <stop offset="0.5" stop-color="#bcc7d4"/>
      <stop offset="1" stop-color="#eef3fa"/>
    </linearGradient>
  </defs>

  <g transform="translate(44 24)">
    <rect x="16" y="72" width="228" height="62" rx="14" fill="#003f78"/>
    <rect x="244" y="82" width="110" height="42" rx="8" fill="url(#metal)" stroke="#003f78" stroke-width="6"/>
    <rect x="354" y="82" width="40" height="42" fill="#f59100"/>
    <polygon points="394,82 504,82 526,102 526,123 504,143 394,143" fill="url(#metal)" stroke="#003f78" stroke-width="6"/>
    <polygon points="526,92 594,102 594,123 526,133" fill="#003f78"/>

    <path d="M598 103 C700 95, 752 62, 776 42 C795 26, 818 24, 851 24 L891 24 L885 8 L932 34 L885 60 L891 45 L851 45 C832 45, 818 49, 808 62 C782 92, 728 112, 598 118 Z" fill="#003f78"/>
    <path d="M600 112 L864 88 L854 122 Z" fill="#f59100"/>
  </g>

  <text x="48" y="274" font-size="108" font-family="Inter, Arial, sans-serif" font-weight="800" fill="#003f78" letter-spacing="2">FORSYNKA</text>
  <text x="702" y="274" font-size="108" font-family="Inter, Arial, sans-serif" font-weight="800" fill="#f59100">.RU</text>
</svg>
