<svg width="64" height="64" viewBox="0 0 64 64" fill="none" xmlns="http://www.w3.org/2000/svg">
  <defs>
    <linearGradient id="maxGradient" x1="8" y1="56" x2="56" y2="8" gradientUnits="userSpaceOnUse">
      <stop offset="0" stop-color="#3EC3FF" />
      <stop offset="0.55" stop-color="#3856FF" />
      <stop offset="1" stop-color="#A347FF" />
    </linearGradient>
  </defs>
  <rect x="6" y="6" width="52" height="52" rx="12" fill="url(#maxGradient)" />
  <path
    fill-rule="evenodd"
    clip-rule="evenodd"
    d="M32 16C22.0589 16 14 24.0589 14 34C14 39.5698 16.5301 44.5485 20.502 47.8517C21.3088 48.5226 22.4904 48.2284 22.8699 47.2516L24.0386 44.2431C24.3201 43.5186 24.119 42.6958 23.5636 42.154C21.9542 40.5844 21 38.3927 21 36C21 31.0294 25.0294 27 30 27C34.9706 27 39 31.0294 39 36C39 40.9706 34.9706 45 30 45C29.1992 45 28.6541 45.8105 28.9524 46.5537L30.2682 49.8327C30.4604 50.3118 30.9257 50.6247 31.4419 50.6116C31.627 50.6069 31.8128 50.6045 32 50.6045C41.9411 50.6045 50 42.5456 50 32.6045C50 22.6634 41.9411 16 32 16Z"
    fill="white"
  />
</svg>
